<svg width="81" height="99" viewBox="0 0 81 99" fill="none" xmlns="http://www.w3.org/2000/svg">
<path d="M54.6411 67.9853C56.2395 65.0405 61.1222 65.5574 71.8383 69.8055C77.7898 72.1651 78.2571 72.4809 78.2861 74.1674C78.3398 77.2627 76.8917 80.2812 74.5936 81.8644C72.461 83.334 72.3332 83.3584 70.437 82.6664C68.4738 82.2005 67.7459 82.3784 67.7459 82.3784C66.8673 82.5931 59.2962 86.2866 48.9794 84.5544C42.5865 88.5469 35.258 91.2625 35.258 91.2625C35.258 91.2625 28.1897 92.4699 20.1395 90.2852C19.8481 89.2934 17.3586 88.6082 13.9051 88.5693C9.35338 88.5177 4.41892 86.7227 3.21552 84.6795C1.88202 82.4166 2.2567 78.4319 4.05726 75.7369C6.41031 72.2139 10.3261 71.7233 19.3268 73.8239C20.4793 74.093 20.9619 73.7813 22.1714 71.9871C23.0185 70.7308 24.3179 69.6569 25.2743 69.4232C26.848 69.0386 33.0234 70.1955 34.3697 71.1267C36.1919 72.3869 37.9892 71.9562 40.2535 69.7162C41.4986 68.4844 42.763 67.4162 43.0629 67.3429C43.3621 67.2698 45.9201 67.6969 48.7475 68.2922C53.8835 69.3739 53.8882 69.3739 54.6411 67.9853Z" fill="#FFFFFB" stroke="black"/>
<path d="M24.2828 42.5759C22.1654 40.0907 17.4944 41.7893 7.83111 48.5582C2.46436 52.3177 2.06766 52.7404 2.35789 54.3946C2.89017 57.4307 4.87458 60.0247 7.41805 61.009C9.77836 61.9228 9.90778 61.9154 11.629 60.776C13.4584 59.841 14.2028 59.8367 14.2028 59.8367C15.1014 59.8316 23.1933 61.5878 32.9418 57.3736C39.9395 59.7098 47.6098 60.5702 47.6098 60.5702C47.6098 60.5702 54.741 60.0212 62.1905 55.9193C62.2877 54.8794 64.5896 53.6016 67.955 52.7192C72.3907 51.556 76.8708 48.5965 77.6602 46.3068C78.535 43.7707 77.4165 39.9707 75.1489 37.7789C72.1854 34.9135 68.2684 35.3918 59.8748 39.6439C58.8 40.1886 58.2698 40.0021 56.7497 38.5456C55.6851 37.5257 54.2132 36.7945 53.235 36.8001C51.6254 36.8093 45.8128 39.4491 44.6738 40.6876C43.1323 42.3639 41.2956 42.3827 38.6612 40.7486C37.2124 39.85 35.7758 39.1159 35.4691 39.1177C35.1631 39.1194 32.7455 40.162 30.0966 41.4347C25.2849 43.7468 25.2803 43.7479 24.2828 42.5759Z" fill="#FFFFFB" stroke="black"/>
<path d="M54.4804 11.061C56.0789 8.11619 60.9616 8.63309 71.6777 12.8812C77.6292 15.2408 78.0965 15.5566 78.1255 17.2431C78.1791 20.3384 76.7311 23.357 74.4329 24.9401C72.3004 26.4097 72.1726 26.4341 70.2764 25.7422C68.3131 25.2762 67.5852 25.4541 67.5852 25.4541C66.7067 25.6688 59.1355 29.3623 48.8188 27.6301C42.4259 31.6226 35.0974 34.3382 35.0974 34.3382C35.0974 34.3382 28.0291 35.5456 19.9789 33.3609C19.6875 32.3691 17.1979 31.6839 13.7445 31.645C9.19275 31.5934 4.25829 29.7984 3.05489 27.7553C1.72139 25.4923 2.09607 21.5076 3.89663 18.8126C6.24968 15.2896 10.1655 14.7991 19.1662 16.8996C20.3187 17.1688 20.8013 16.8571 22.0108 15.0629C22.8579 13.8065 24.1572 12.7326 25.1137 12.4989C26.6874 12.1144 32.8628 13.2712 34.2091 14.2024C36.0313 15.4626 37.8286 15.0319 40.0928 12.7919C41.338 11.5601 42.6024 10.4919 42.9023 10.4186C43.2014 10.3455 45.7594 10.7726 48.5869 11.3679C53.7229 12.4496 53.7276 12.4496 54.4804 11.061Z" fill="#FFFFFB" stroke="black"/>
<path d="M28.2002 26.8015C30.0854 26.6485 34.7344 30.7141 34.7344 30.7141C32.8526 28.9086 44.9056 24.9118 46.2552 24.582C47.672 24.2358 50.8979 23.0194 50.8979 23.0194C51.9395 22.1471 55.6702 23.4922 57.604 23.6714C60.8931 26.2797 62.5718 24.2911 63.4504 23.0194C64.8187 21.0379 71.0163 22.4976 71.0163 22.4976C72.6234 21.8672 73.2813 21.3816 73.4236 19.9544C74.2763 18.637 74.164 17.9096 73.0797 16.6287C73.0369 16.0111 69.7097 16.3091 68.609 16.6287L64.6541 13.6942L59.8439 12.3248L55.5406 17.6068C54.7871 18.5946 46.2552 15.4549 46.2552 15.4549C44.352 14.6292 40.0666 18.3061 38.2915 19.9986C36.3261 21.8727 36.6782 20.2273 33.3875 18.9694C30.1271 17.7229 27.1417 16.2714 26.3087 17.9435C25.9901 18.582 24.8077 20.8012 24.0733 21.3128C22.8096 22.1934 23.0952 24.3053 21.1482 23.7872C19.2012 23.2692 11.684 21.6175 10.833 21.3128C8.50574 20.48 6.47028 22.9715 6.36219 25.2365C6.31938 26.13 8.00379 26.9911 9.80123 27.5058C11.2851 27.9308 14.6358 27.8373 15.6476 27.5058C16.8214 27.1206 19.7232 28.3092 21.1482 29.0975C22.8944 30.0634 24.0749 28.4375 25.4122 27.5058C26.248 26.9235 27.2553 26.8777 28.2002 26.8015Z" stroke="black"/>
<path d="M28.2002 83.1313C30.0854 82.9784 34.7344 87.044 34.7344 87.044C32.8526 85.2384 44.9056 81.2416 46.2552 80.9119C47.672 80.5657 50.8979 79.3493 50.8979 79.3493C51.9395 78.477 55.6702 79.822 57.604 80.0012C60.8931 82.6095 62.5718 80.6209 63.4504 79.3493C64.8187 77.3678 71.0163 78.8274 71.0163 78.8274C72.6234 78.1971 73.2813 77.7114 73.4236 76.2842C74.2763 74.9668 74.164 74.2394 73.0797 72.9585C73.0369 72.3409 69.7097 72.639 68.609 72.9585L64.6541 70.024L59.8439 68.6546L55.5406 73.9367C54.7871 74.9244 46.2552 71.7847 46.2552 71.7847C44.352 70.959 40.0666 74.6359 38.2915 76.3284C36.3261 78.2025 36.6782 76.5571 33.3875 75.2992C30.1271 74.0527 27.1417 72.6012 26.3087 74.2733C25.9901 74.9118 24.8077 77.1311 24.0733 77.6426C22.8096 78.5232 23.0952 80.6351 21.1482 80.117C19.2012 79.599 11.684 77.9473 10.833 77.6426C8.50574 76.8099 6.47028 79.3013 6.36219 81.5663C6.31938 82.4599 8.00379 83.321 9.80123 83.8356C11.2851 84.2606 14.6358 84.1671 15.6476 83.8356C16.8214 83.4505 19.7232 84.639 21.1482 85.4273C22.8944 86.3932 24.0749 84.7674 25.4122 83.8356C26.248 83.2533 27.2553 83.2076 28.2002 83.1313Z" stroke="black"/>
<path d="M52.8568 50.9343C50.9907 51.2748 47.2799 56.4401 47.2799 56.4401C48.7499 54.1937 36.2132 53.4317 34.8331 53.461C33.3842 53.4918 29.9994 53.1451 29.9994 53.1451C28.8103 52.5662 25.4479 54.8444 23.601 55.5209C20.9219 58.9143 18.8887 57.414 17.7782 56.4041C16.0485 54.8301 10.3072 57.8603 10.3072 57.8603C8.61606 57.6639 7.87816 57.3618 7.45329 56.0093C6.35892 54.948 6.32228 54.2106 7.12103 52.682C7.03887 52.0696 10.338 51.4959 11.4738 51.5213L14.7358 47.6374L19.1443 45.0552L24.3936 49.0806C25.3253 49.8467 33.0023 44.5747 33.0023 44.5747C34.6896 43.2767 39.5995 45.7439 41.6672 46.9309C43.9568 48.2452 43.2839 46.7347 46.2354 44.6556C49.1597 42.5956 51.7752 40.4072 52.9216 41.8189C53.3599 42.3579 54.9562 44.2116 55.7739 44.5189C57.1809 45.0482 57.3264 47.1785 59.1182 46.1686C60.9099 45.1587 67.8974 41.599 68.6649 41.0813C70.7636 39.6663 73.2451 41.5636 73.8047 43.7407C74.0256 44.5996 72.5583 45.8753 70.9116 46.843C69.5521 47.6421 66.2711 48.421 65.2195 48.3609C63.9994 48.2907 61.4126 50.2013 60.1833 51.3387C58.6769 52.7325 57.2014 51.4561 55.7126 50.8961C54.782 50.5462 53.7921 50.7632 52.8568 50.9343Z" stroke="black"/>
</svg>
