<svg width="110" height="110" viewBox="0 0 110 110" fill="none" xmlns="http://www.w3.org/2000/svg">
<path d="M73.6671 61.9152C77.2016 61.5625 80.7033 66.568 86.0007 79.5444C88.9427 86.7514 89.0735 87.4008 87.8033 88.507C85.4725 90.5376 82.0016 91.0814 78.9528 89.8934C76.1233 88.7914 76.0025 88.6847 75.0193 86.4267C73.8093 84.249 73.0918 83.6659 73.0918 83.6659C72.2257 82.962 63.3488 78.075 56.4408 67.0896C48.2753 63.5219 40.342 58.2418 40.342 58.2418C40.342 58.2418 33.7731 52.2464 29.0216 43.1418C29.5495 42.2286 28.0875 39.4069 25.3602 36.0755C21.7659 31.6846 19.203 25.8123 19.8091 23.3536C20.4799 20.6299 23.8347 18.4406 27.339 18.4412C31.9192 18.4413 35.4216 21.8767 40.9964 31.8375C41.7102 33.1131 42.3345 33.3759 44.676 33.3865C46.3157 33.3942 48.1766 33.9515 49.1195 34.7178C50.6707 35.9787 54.7137 42.631 55.0745 44.5154C55.5627 47.0659 57.3279 48.5113 60.8534 49.2468C62.7921 49.6513 64.6207 50.1788 64.9163 50.419C65.2112 50.6587 66.9259 53.381 68.7266 56.4687C71.9975 62.0778 72.0012 62.0823 73.6671 61.9152Z" fill="#FFFFFB" stroke="black"/>
<path d="M40.9429 46.2849C42.5653 47.992 43.159 55.0429 43.159 55.0429C43.0413 52.0866 55.7289 61.0708 57.0592 62.1521C58.4559 63.2873 61.964 65.598 61.964 65.598C63.4646 66.0375 65.4115 70.4695 66.8179 72.4356C67.4436 77.2526 70.3087 77.5882 71.9854 77.6163C74.5973 77.6592 78.4258 84.5264 78.4258 84.5264C80.1923 85.6621 81.0899 85.9814 82.298 85.2051C83.989 85.179 84.4572 84.6064 84.5739 82.7492C85.0133 82.3132 82.1285 79.3183 81.0046 78.4687L80.0976 72.8057L77.3075 67.3245L69.8213 66.582C68.4623 66.4922 64.0586 56.3158 64.0586 56.3158C63.1724 53.9656 56.9314 52.2138 54.2163 51.5965C51.21 50.9131 52.7529 50.1981 51.0904 46.2431C49.4434 42.3245 48.1732 38.538 46.2258 38.8096C45.4818 38.9129 42.836 39.1999 41.8574 38.8239C40.1732 38.1771 38.7816 39.8009 37.6245 37.6055C36.4674 35.4101 31.7326 27.1567 31.2869 26.1471C30.0676 23.3864 26.5319 23.0307 24.7087 24.3756C23.9893 24.906 24.6737 27.0693 25.714 29.1194C26.5727 30.8119 29.3194 33.9602 30.3815 34.7169C31.6139 35.5945 33.0191 39.1327 33.5522 41.0011C34.2056 43.2907 36.3949 43.3813 38.177 44.0658C39.2908 44.4937 40.1301 45.429 40.9429 46.2849Z" stroke="black"/>
<path d="M34.2209 62.9299C30.678 62.6531 27.4542 67.5496 22.8662 80.1754C20.3183 87.1876 20.2225 87.817 21.5481 88.8622C23.9807 90.781 27.4704 91.2434 30.4467 90.0413C33.209 88.9261 33.3236 88.8209 34.1832 86.6228C35.2733 84.4982 35.9575 83.9221 35.9575 83.9221C36.7834 83.2268 45.3728 78.3477 51.6731 67.6155C59.6238 64.0231 67.2514 58.7815 67.2514 58.7815C67.2514 58.7815 73.4804 52.8737 77.7312 43.9965C77.156 43.1243 78.4628 40.3732 81.0039 37.1072C84.3529 32.8024 86.5943 27.0858 85.8585 24.7227C85.0441 22.1046 81.582 20.0512 78.0882 20.115C73.5214 20.1977 70.2131 23.5782 65.1872 33.2971C64.5438 34.5417 63.9353 34.8066 61.6013 34.8592C59.9668 34.8962 58.1412 35.4679 57.2421 36.2249C55.7628 37.4704 52.0874 43.9669 51.8285 45.793C51.478 48.2645 49.7953 49.6921 46.3195 50.4659C44.4082 50.8915 42.6132 51.4338 42.3313 51.6712C42.05 51.9079 40.486 54.5675 38.8556 57.5816C35.8943 63.0568 35.8908 63.0612 34.2209 62.9299Z" fill="#FFFFFB" stroke="black"/>
<path d="M65.9313 47.3549C64.4271 49.0518 64.3061 55.8681 64.3061 55.8681C64.226 53.0143 52.171 62.0756 50.9163 63.16C49.599 64.2984 46.2542 66.6367 46.2542 66.6367C44.7868 67.1077 43.141 71.4418 41.8696 73.3816C41.5674 78.0452 38.732 78.459 37.0615 78.5389C34.459 78.6627 31.0992 85.4038 31.0992 85.4038C29.4131 86.5543 28.5391 86.8904 27.2821 86.1801C25.5937 86.2082 25.0884 85.671 24.8479 83.8841C24.3805 83.4777 27.0578 80.4994 28.1221 79.645L28.6484 74.1568L31.065 68.7847L38.4826 67.8329C39.8322 67.7035 43.5447 57.7539 43.5447 57.7539C44.2716 55.4603 50.3796 53.5747 53.0465 52.8941C55.9996 52.1404 54.4128 51.4997 55.8067 47.6345C57.1877 43.8047 58.2017 40.1142 60.1623 40.3147C60.9112 40.3908 63.5695 40.5842 64.5205 40.1908C66.1572 39.5142 67.6538 41.0358 68.6612 38.8828C69.6687 36.7298 73.8399 28.6238 74.217 27.6363C75.2488 24.9364 78.7516 24.4821 80.6601 25.7212C81.4132 26.2099 80.8751 28.3171 79.9744 30.3262C79.2309 31.985 76.7016 35.1067 75.6929 35.8697C74.5222 36.7546 73.3571 40.21 72.9501 42.0281C72.4514 44.256 70.2737 44.4124 68.5419 45.1284C67.4595 45.5761 66.6848 46.5041 65.9313 47.3549Z" stroke="black"/>
</svg>
